<mxfile host="app.diagrams.net" modified="2023-05-12T03:56:58.180Z" agent="Mozilla/5.0 (Macintosh; Intel Mac OS X 10_15_7) AppleWebKit/537.36 (KHTML, like Gecko) Chrome/112.0.0.0 Safari/537.36" etag="5sMK0Fd4TczRDW9ESDu8" version="21.2.9" type="device">
  <diagram name="Page-1" id="lJ0_LEbYjmrr0YWgPthY">
    <mxGraphModel dx="1088" dy="585" grid="0" gridSize="11" guides="1" tooltips="1" connect="1" arrows="1" fold="1" page="1" pageScale="1" pageWidth="850" pageHeight="1100" math="0" shadow="0">
      <root>
        <mxCell id="0" />
        <mxCell id="1" parent="0" />
        <mxCell id="MF8MeAIVvCoW0Vd0KlMn-1" value="&lt;b style=&quot;font-size: 14px;&quot;&gt;Update &lt;br&gt;packet &lt;br&gt;index&lt;/b&gt;" style="whiteSpace=wrap;html=1;aspect=fixed;fillColor=#fff2cc;strokeColor=#d6b656;" parent="1" vertex="1">
          <mxGeometry x="22" y="120" width="80" height="80" as="geometry" />
        </mxCell>
        <mxCell id="MF8MeAIVvCoW0Vd0KlMn-2" value="Register 0" style="whiteSpace=wrap;html=1;aspect=fixed;fillColor=#f5f5f5;fontColor=#333333;strokeColor=#666666;fontStyle=1" parent="1" vertex="1">
          <mxGeometry x="248" y="120" width="80" height="80" as="geometry" />
        </mxCell>
        <mxCell id="MF8MeAIVvCoW0Vd0KlMn-3" value="&lt;span style=&quot;color: rgb(51, 51, 51); font-family: Helvetica; font-size: 12px; font-style: normal; font-variant-ligatures: normal; font-variant-caps: normal; font-weight: 700; letter-spacing: normal; orphans: 2; text-align: center; text-indent: 0px; text-transform: none; widows: 2; word-spacing: 0px; -webkit-text-stroke-width: 0px; background-color: rgb(251, 251, 251); text-decoration-thickness: initial; text-decoration-style: initial; text-decoration-color: initial; float: none; display: inline !important;&quot;&gt;Register m&lt;/span&gt;" style="whiteSpace=wrap;html=1;aspect=fixed;fillColor=#f5f5f5;fontColor=#333333;strokeColor=#666666;" parent="1" vertex="1">
          <mxGeometry x="466" y="120" width="80" height="80" as="geometry" />
        </mxCell>
        <mxCell id="MF8MeAIVvCoW0Vd0KlMn-4" value="&lt;span style=&quot;color: rgb(51, 51, 51); font-family: Helvetica; font-size: 12px; font-style: normal; font-variant-ligatures: normal; font-variant-caps: normal; letter-spacing: normal; orphans: 2; text-align: center; text-indent: 0px; text-transform: none; widows: 2; word-spacing: 0px; -webkit-text-stroke-width: 0px; background-color: rgb(251, 251, 251); text-decoration-thickness: initial; text-decoration-style: initial; text-decoration-color: initial; float: none; display: inline !important;&quot;&gt;Register 1&lt;/span&gt;" style="whiteSpace=wrap;html=1;aspect=fixed;fillColor=#f5f5f5;fontColor=#333333;strokeColor=#666666;fontStyle=1" parent="1" vertex="1">
          <mxGeometry x="249" y="240" width="80" height="80" as="geometry" />
        </mxCell>
        <mxCell id="MF8MeAIVvCoW0Vd0KlMn-5" value="&lt;span style=&quot;color: rgb(51, 51, 51); font-family: Helvetica; font-size: 12px; font-style: normal; font-variant-ligatures: normal; font-variant-caps: normal; font-weight: 700; letter-spacing: normal; orphans: 2; text-align: center; text-indent: 0px; text-transform: none; widows: 2; word-spacing: 0px; -webkit-text-stroke-width: 0px; background-color: rgb(251, 251, 251); text-decoration-thickness: initial; text-decoration-style: initial; text-decoration-color: initial; float: none; display: inline !important;&quot;&gt;Register m+1&lt;/span&gt;" style="whiteSpace=wrap;html=1;aspect=fixed;fillColor=#f5f5f5;fontColor=#333333;strokeColor=#666666;" parent="1" vertex="1">
          <mxGeometry x="466" y="240" width="80" height="80" as="geometry" />
        </mxCell>
        <mxCell id="MF8MeAIVvCoW0Vd0KlMn-6" value="&lt;span style=&quot;color: rgb(51, 51, 51); font-family: Helvetica; font-size: 12px; font-style: normal; font-variant-ligatures: normal; font-variant-caps: normal; letter-spacing: normal; orphans: 2; text-align: center; text-indent: 0px; text-transform: none; widows: 2; word-spacing: 0px; -webkit-text-stroke-width: 0px; background-color: rgb(251, 251, 251); text-decoration-thickness: initial; text-decoration-style: initial; text-decoration-color: initial; float: none; display: inline !important;&quot;&gt;&lt;b&gt;Register m-1&lt;/b&gt;&lt;/span&gt;" style="whiteSpace=wrap;html=1;aspect=fixed;fillColor=#f5f5f5;fontColor=#333333;strokeColor=#666666;" parent="1" vertex="1">
          <mxGeometry x="248" y="440" width="80" height="80" as="geometry" />
        </mxCell>
        <mxCell id="MF8MeAIVvCoW0Vd0KlMn-7" value="&lt;span style=&quot;color: rgb(51, 51, 51); font-family: Helvetica; font-size: 12px; font-style: normal; font-variant-ligatures: normal; font-variant-caps: normal; font-weight: 700; letter-spacing: normal; orphans: 2; text-align: center; text-indent: 0px; text-transform: none; widows: 2; word-spacing: 0px; -webkit-text-stroke-width: 0px; background-color: rgb(251, 251, 251); text-decoration-thickness: initial; text-decoration-style: initial; text-decoration-color: initial; float: none; display: inline !important;&quot;&gt;Register &lt;br&gt;2m-1&lt;/span&gt;" style="whiteSpace=wrap;html=1;aspect=fixed;fillColor=#f5f5f5;fontColor=#333333;strokeColor=#666666;" parent="1" vertex="1">
          <mxGeometry x="466" y="440" width="80" height="80" as="geometry" />
        </mxCell>
        <mxCell id="MF8MeAIVvCoW0Vd0KlMn-8" value="&lt;span style=&quot;color: rgb(51, 51, 51); font-family: Helvetica; font-size: 12px; font-style: normal; font-variant-ligatures: normal; font-variant-caps: normal; font-weight: 700; letter-spacing: normal; orphans: 2; text-align: center; text-indent: 0px; text-transform: none; widows: 2; word-spacing: 0px; -webkit-text-stroke-width: 0px; background-color: rgb(251, 251, 251); text-decoration-thickness: initial; text-decoration-style: initial; text-decoration-color: initial; float: none; display: inline !important;&quot;&gt;Register&amp;nbsp;&lt;br&gt;(n-1)m&lt;br&gt;&lt;/span&gt;" style="whiteSpace=wrap;html=1;aspect=fixed;fillColor=#f5f5f5;fontColor=#333333;strokeColor=#666666;" parent="1" vertex="1">
          <mxGeometry x="642" y="120" width="80" height="80" as="geometry" />
        </mxCell>
        <mxCell id="MF8MeAIVvCoW0Vd0KlMn-9" value="&lt;span style=&quot;color: rgb(51, 51, 51); font-family: Helvetica; font-size: 12px; font-style: normal; font-variant-ligatures: normal; font-variant-caps: normal; font-weight: 700; letter-spacing: normal; orphans: 2; text-align: center; text-indent: 0px; text-transform: none; widows: 2; word-spacing: 0px; -webkit-text-stroke-width: 0px; background-color: rgb(251, 251, 251); text-decoration-thickness: initial; text-decoration-style: initial; text-decoration-color: initial; float: none; display: inline !important;&quot;&gt;Register&amp;nbsp;&lt;/span&gt;&lt;br style=&quot;border-color: var(--border-color); color: rgb(51, 51, 51); font-family: Helvetica; font-size: 12px; font-style: normal; font-variant-ligatures: normal; font-variant-caps: normal; font-weight: 700; letter-spacing: normal; orphans: 2; text-align: center; text-indent: 0px; text-transform: none; widows: 2; word-spacing: 0px; -webkit-text-stroke-width: 0px; text-decoration-thickness: initial; text-decoration-style: initial; text-decoration-color: initial;&quot;&gt;&lt;span style=&quot;color: rgb(51, 51, 51); font-family: Helvetica; font-size: 12px; font-style: normal; font-variant-ligatures: normal; font-variant-caps: normal; font-weight: 700; letter-spacing: normal; orphans: 2; text-align: center; text-indent: 0px; text-transform: none; widows: 2; word-spacing: 0px; -webkit-text-stroke-width: 0px; background-color: rgb(251, 251, 251); text-decoration-thickness: initial; text-decoration-style: initial; text-decoration-color: initial; float: none; display: inline !important;&quot;&gt;(n-1)m+1&lt;/span&gt;" style="whiteSpace=wrap;html=1;aspect=fixed;fillColor=#f5f5f5;fontColor=#333333;strokeColor=#666666;" parent="1" vertex="1">
          <mxGeometry x="642" y="240" width="80" height="80" as="geometry" />
        </mxCell>
        <mxCell id="MF8MeAIVvCoW0Vd0KlMn-10" value="&lt;span style=&quot;border-color: var(--border-color); color: rgb(51, 51, 51); font-family: Helvetica; font-size: 12px; font-style: normal; font-variant-ligatures: normal; font-variant-caps: normal; letter-spacing: normal; orphans: 2; text-align: center; text-indent: 0px; text-transform: none; widows: 2; word-spacing: 0px; -webkit-text-stroke-width: 0px; text-decoration-thickness: initial; text-decoration-style: initial; text-decoration-color: initial; font-weight: 700; background-color: rgb(251, 251, 251); float: none; display: inline !important;&quot;&gt;Register&amp;nbsp;&lt;/span&gt;&lt;br style=&quot;border-color: var(--border-color); color: rgb(51, 51, 51); font-family: Helvetica; font-size: 12px; font-style: normal; font-variant-ligatures: normal; font-variant-caps: normal; letter-spacing: normal; orphans: 2; text-align: center; text-indent: 0px; text-transform: none; widows: 2; word-spacing: 0px; -webkit-text-stroke-width: 0px; background-color: rgb(251, 251, 251); text-decoration-thickness: initial; text-decoration-style: initial; text-decoration-color: initial; font-weight: 700;&quot;&gt;&lt;span style=&quot;border-color: var(--border-color); color: rgb(51, 51, 51); font-family: Helvetica; font-size: 12px; font-style: normal; font-variant-ligatures: normal; font-variant-caps: normal; letter-spacing: normal; orphans: 2; text-align: center; text-indent: 0px; text-transform: none; widows: 2; word-spacing: 0px; -webkit-text-stroke-width: 0px; text-decoration-thickness: initial; text-decoration-style: initial; text-decoration-color: initial; font-weight: 700; background-color: rgb(251, 251, 251); float: none; display: inline !important;&quot;&gt;nm-1&lt;/span&gt;" style="whiteSpace=wrap;html=1;aspect=fixed;fillColor=#f5f5f5;fontColor=#333333;strokeColor=#666666;" parent="1" vertex="1">
          <mxGeometry x="642" y="440" width="80" height="80" as="geometry" />
        </mxCell>
        <mxCell id="MF8MeAIVvCoW0Vd0KlMn-11" value="" style="endArrow=none;dashed=1;html=1;dashPattern=1 3;strokeWidth=2;rounded=0;" parent="1" edge="1">
          <mxGeometry width="50" height="50" relative="1" as="geometry">
            <mxPoint x="556" y="159.5" as="sourcePoint" />
            <mxPoint x="626" y="159.5" as="targetPoint" />
          </mxGeometry>
        </mxCell>
        <mxCell id="MF8MeAIVvCoW0Vd0KlMn-12" value="" style="endArrow=none;dashed=1;html=1;dashPattern=1 3;strokeWidth=2;rounded=0;" parent="1" edge="1">
          <mxGeometry width="50" height="50" relative="1" as="geometry">
            <mxPoint x="556" y="279.5" as="sourcePoint" />
            <mxPoint x="626" y="279.5" as="targetPoint" />
          </mxGeometry>
        </mxCell>
        <mxCell id="MF8MeAIVvCoW0Vd0KlMn-13" value="" style="endArrow=none;dashed=1;html=1;dashPattern=1 3;strokeWidth=2;rounded=0;" parent="1" edge="1">
          <mxGeometry width="50" height="50" relative="1" as="geometry">
            <mxPoint x="556" y="479.5" as="sourcePoint" />
            <mxPoint x="626" y="479.5" as="targetPoint" />
          </mxGeometry>
        </mxCell>
        <mxCell id="MF8MeAIVvCoW0Vd0KlMn-15" value="" style="endArrow=none;dashed=1;html=1;dashPattern=1 3;strokeWidth=2;rounded=0;" parent="1" edge="1">
          <mxGeometry width="50" height="50" relative="1" as="geometry">
            <mxPoint x="287.5" y="360" as="sourcePoint" />
            <mxPoint x="287.5" y="410" as="targetPoint" />
          </mxGeometry>
        </mxCell>
        <mxCell id="MF8MeAIVvCoW0Vd0KlMn-16" value="" style="endArrow=none;dashed=1;html=1;dashPattern=1 3;strokeWidth=2;rounded=0;" parent="1" edge="1">
          <mxGeometry width="50" height="50" relative="1" as="geometry">
            <mxPoint x="505.5" y="360" as="sourcePoint" />
            <mxPoint x="505.5" y="410" as="targetPoint" />
          </mxGeometry>
        </mxCell>
        <mxCell id="MF8MeAIVvCoW0Vd0KlMn-17" value="" style="endArrow=none;dashed=1;html=1;dashPattern=1 3;strokeWidth=2;rounded=0;" parent="1" edge="1">
          <mxGeometry width="50" height="50" relative="1" as="geometry">
            <mxPoint x="681.5" y="360" as="sourcePoint" />
            <mxPoint x="681.5" y="410" as="targetPoint" />
          </mxGeometry>
        </mxCell>
        <mxCell id="MF8MeAIVvCoW0Vd0KlMn-22" value="" style="endArrow=classic;html=1;rounded=0;" parent="1" edge="1">
          <mxGeometry relative="1" as="geometry">
            <mxPoint x="50" y="80" as="sourcePoint" />
            <mxPoint x="814" y="80" as="targetPoint" />
          </mxGeometry>
        </mxCell>
        <mxCell id="MF8MeAIVvCoW0Vd0KlMn-23" value="&lt;font style=&quot;font-size: 23px;&quot;&gt;Network Packet Flow&lt;/font&gt;" style="edgeLabel;resizable=0;html=1;align=center;verticalAlign=middle;fontSize=23;" parent="MF8MeAIVvCoW0Vd0KlMn-22" connectable="0" vertex="1">
          <mxGeometry relative="1" as="geometry" />
        </mxCell>
        <mxCell id="MF8MeAIVvCoW0Vd0KlMn-24" value="P0" style="rounded=0;whiteSpace=wrap;html=1;" parent="1" vertex="1">
          <mxGeometry x="154" y="140" width="40" height="37" as="geometry" />
        </mxCell>
        <mxCell id="MF8MeAIVvCoW0Vd0KlMn-30" value="" style="endArrow=none;dashed=1;html=1;dashPattern=1 3;strokeWidth=2;rounded=0;" parent="1" edge="1">
          <mxGeometry width="50" height="50" relative="1" as="geometry">
            <mxPoint x="175.5" y="260" as="sourcePoint" />
            <mxPoint x="175.5" y="310" as="targetPoint" />
          </mxGeometry>
        </mxCell>
        <mxCell id="MF8MeAIVvCoW0Vd0KlMn-31" value="P1" style="rounded=0;whiteSpace=wrap;html=1;" parent="1" vertex="1">
          <mxGeometry x="154" y="177" width="40" height="37" as="geometry" />
        </mxCell>
        <mxCell id="MF8MeAIVvCoW0Vd0KlMn-32" value="P2" style="rounded=0;whiteSpace=wrap;html=1;" parent="1" vertex="1">
          <mxGeometry x="154" y="214" width="40" height="37" as="geometry" />
        </mxCell>
        <mxCell id="MF8MeAIVvCoW0Vd0KlMn-33" value="Pmn-2" style="rounded=0;whiteSpace=wrap;html=1;" parent="1" vertex="1">
          <mxGeometry x="154" y="313" width="40" height="37" as="geometry" />
        </mxCell>
        <mxCell id="MF8MeAIVvCoW0Vd0KlMn-34" value="Pmn-1" style="rounded=0;whiteSpace=wrap;html=1;" parent="1" vertex="1">
          <mxGeometry x="154" y="350" width="40" height="37" as="geometry" />
        </mxCell>
        <mxCell id="MF8MeAIVvCoW0Vd0KlMn-35" value="PIdx" style="rounded=0;whiteSpace=wrap;html=1;" parent="1" vertex="1">
          <mxGeometry x="154" y="387" width="40" height="37" as="geometry" />
        </mxCell>
        <mxCell id="MF8MeAIVvCoW0Vd0KlMn-40" value="" style="endArrow=classic;html=1;rounded=0;exitX=1;exitY=0.5;exitDx=0;exitDy=0;fillColor=#dae8fc;strokeColor=#080808;entryX=0;entryY=0.5;entryDx=0;entryDy=0;strokeWidth=2;" parent="1" source="MF8MeAIVvCoW0Vd0KlMn-1" target="MF8MeAIVvCoW0Vd0KlMn-35" edge="1">
          <mxGeometry width="50" height="50" relative="1" as="geometry">
            <mxPoint x="129.03999999999996" y="184.03999999999996" as="sourcePoint" />
            <mxPoint x="151" y="398.5" as="targetPoint" />
          </mxGeometry>
        </mxCell>
        <mxCell id="MF8MeAIVvCoW0Vd0KlMn-41" value="" style="endArrow=classic;html=1;rounded=0;exitX=1;exitY=0.5;exitDx=0;exitDy=0;fillColor=#dae8fc;strokeColor=#0c66e4;entryX=0;entryY=0.5;entryDx=0;entryDy=0;strokeWidth=2;" parent="1" target="MF8MeAIVvCoW0Vd0KlMn-2" edge="1">
          <mxGeometry width="50" height="50" relative="1" as="geometry">
            <mxPoint x="197" y="407" as="sourcePoint" />
            <mxPoint x="249" y="653" as="targetPoint" />
          </mxGeometry>
        </mxCell>
        <mxCell id="MF8MeAIVvCoW0Vd0KlMn-42" value="" style="endArrow=classic;html=1;rounded=0;fillColor=#dae8fc;strokeColor=#0c66e4;entryX=0;entryY=0.5;entryDx=0;entryDy=0;strokeWidth=2;" parent="1" target="MF8MeAIVvCoW0Vd0KlMn-4" edge="1">
          <mxGeometry width="50" height="50" relative="1" as="geometry">
            <mxPoint x="198" y="407" as="sourcePoint" />
            <mxPoint x="259" y="171" as="targetPoint" />
          </mxGeometry>
        </mxCell>
        <mxCell id="MF8MeAIVvCoW0Vd0KlMn-43" value="" style="endArrow=classic;html=1;rounded=0;fillColor=#dae8fc;strokeColor=#0c66e4;entryX=0;entryY=0.5;entryDx=0;entryDy=0;strokeWidth=2;" parent="1" target="MF8MeAIVvCoW0Vd0KlMn-6" edge="1">
          <mxGeometry width="50" height="50" relative="1" as="geometry">
            <mxPoint x="198" y="407" as="sourcePoint" />
            <mxPoint x="260" y="291" as="targetPoint" />
          </mxGeometry>
        </mxCell>
        <mxCell id="MF8MeAIVvCoW0Vd0KlMn-44" value="P0" style="rounded=0;whiteSpace=wrap;html=1;" parent="1" vertex="1">
          <mxGeometry x="368" y="140" width="40" height="37" as="geometry" />
        </mxCell>
        <mxCell id="MF8MeAIVvCoW0Vd0KlMn-46" value="P1" style="rounded=0;whiteSpace=wrap;html=1;" parent="1" vertex="1">
          <mxGeometry x="368" y="177" width="40" height="37" as="geometry" />
        </mxCell>
        <mxCell id="MF8MeAIVvCoW0Vd0KlMn-47" value="P2" style="rounded=0;whiteSpace=wrap;html=1;" parent="1" vertex="1">
          <mxGeometry x="368" y="214" width="40" height="37" as="geometry" />
        </mxCell>
        <mxCell id="MF8MeAIVvCoW0Vd0KlMn-48" value="Pmn-2" style="rounded=0;whiteSpace=wrap;html=1;" parent="1" vertex="1">
          <mxGeometry x="368" y="345" width="40" height="37" as="geometry" />
        </mxCell>
        <mxCell id="MF8MeAIVvCoW0Vd0KlMn-49" value="Pmn-1" style="rounded=0;whiteSpace=wrap;html=1;" parent="1" vertex="1">
          <mxGeometry x="368" y="382" width="40" height="37" as="geometry" />
        </mxCell>
        <mxCell id="MF8MeAIVvCoW0Vd0KlMn-50" value="PIdx" style="rounded=0;whiteSpace=wrap;html=1;" parent="1" vertex="1">
          <mxGeometry x="368" y="419" width="40" height="37" as="geometry" />
        </mxCell>
        <mxCell id="MF8MeAIVvCoW0Vd0KlMn-51" value="" style="endArrow=classic;html=1;rounded=0;fillColor=#dae8fc;strokeColor=#080808;entryX=0;entryY=0.5;entryDx=0;entryDy=0;strokeWidth=2;exitX=1;exitY=0.5;exitDx=0;exitDy=0;" parent="1" source="MF8MeAIVvCoW0Vd0KlMn-4" target="MF8MeAIVvCoW0Vd0KlMn-46" edge="1">
          <mxGeometry width="50" height="50" relative="1" as="geometry">
            <mxPoint x="317" y="341" as="sourcePoint" />
            <mxPoint x="368" y="214" as="targetPoint" />
          </mxGeometry>
        </mxCell>
        <mxCell id="MF8MeAIVvCoW0Vd0KlMn-53" value="" style="endArrow=classic;html=1;rounded=0;fillColor=#dae8fc;strokeColor=#080808;entryX=0;entryY=0.5;entryDx=0;entryDy=0;strokeWidth=2;exitX=1;exitY=0.625;exitDx=0;exitDy=0;exitPerimeter=0;" parent="1" source="MF8MeAIVvCoW0Vd0KlMn-2" target="MF8MeAIVvCoW0Vd0KlMn-44" edge="1">
          <mxGeometry width="50" height="50" relative="1" as="geometry">
            <mxPoint x="329" y="161" as="sourcePoint" />
            <mxPoint x="368" y="88" as="targetPoint" />
          </mxGeometry>
        </mxCell>
        <mxCell id="MF8MeAIVvCoW0Vd0KlMn-58" value="" style="endArrow=none;dashed=1;html=1;dashPattern=1 3;strokeWidth=2;rounded=0;" parent="1" edge="1">
          <mxGeometry width="50" height="50" relative="1" as="geometry">
            <mxPoint x="389.5" y="260" as="sourcePoint" />
            <mxPoint x="388.804347826087" y="276" as="targetPoint" />
          </mxGeometry>
        </mxCell>
        <mxCell id="MF8MeAIVvCoW0Vd0KlMn-57" value="Pm-1" style="rounded=0;whiteSpace=wrap;html=1;" parent="1" vertex="1">
          <mxGeometry x="368" y="276" width="40" height="37" as="geometry" />
        </mxCell>
        <mxCell id="MF8MeAIVvCoW0Vd0KlMn-60" value="" style="endArrow=none;dashed=1;html=1;dashPattern=1 3;strokeWidth=2;rounded=0;" parent="1" edge="1">
          <mxGeometry width="50" height="50" relative="1" as="geometry">
            <mxPoint x="389.5" y="323" as="sourcePoint" />
            <mxPoint x="388.804347826087" y="339" as="targetPoint" />
          </mxGeometry>
        </mxCell>
        <mxCell id="MF8MeAIVvCoW0Vd0KlMn-61" value="" style="endArrow=classic;html=1;rounded=0;fillColor=#dae8fc;strokeColor=#080808;entryX=0;entryY=0.5;entryDx=0;entryDy=0;strokeWidth=2;exitX=1;exitY=0.5;exitDx=0;exitDy=0;" parent="1" target="MF8MeAIVvCoW0Vd0KlMn-57" edge="1">
          <mxGeometry width="50" height="50" relative="1" as="geometry">
            <mxPoint x="328" y="479.5" as="sourcePoint" />
            <mxPoint x="367" y="395.5" as="targetPoint" />
          </mxGeometry>
        </mxCell>
        <mxCell id="MF8MeAIVvCoW0Vd0KlMn-62" value="Pfield" style="rounded=0;whiteSpace=wrap;html=1;fillColor=#f8cecc;strokeColor=#b85450;" parent="1" vertex="1">
          <mxGeometry x="154" y="103" width="40" height="37" as="geometry" />
        </mxCell>
        <mxCell id="MF8MeAIVvCoW0Vd0KlMn-63" value="Pfield" style="rounded=0;whiteSpace=wrap;html=1;fillColor=#f8cecc;strokeColor=#b85450;" parent="1" vertex="1">
          <mxGeometry x="368" y="103" width="40" height="37" as="geometry" />
        </mxCell>
        <mxCell id="MF8MeAIVvCoW0Vd0KlMn-64" value="" style="endArrow=classic;html=1;rounded=0;fillColor=#dae8fc;strokeColor=#0c66e4;strokeWidth=2;exitX=1;exitY=0.5;exitDx=0;exitDy=0;" parent="1" source="MF8MeAIVvCoW0Vd0KlMn-62" edge="1">
          <mxGeometry width="50" height="50" relative="1" as="geometry">
            <mxPoint x="176" y="214" as="sourcePoint" />
            <mxPoint x="253" y="165" as="targetPoint" />
          </mxGeometry>
        </mxCell>
        <mxCell id="MF8MeAIVvCoW0Vd0KlMn-65" value="" style="endArrow=classic;html=1;rounded=0;fillColor=#dae8fc;strokeColor=#0c66e4;strokeWidth=2;exitX=1;exitY=0.5;exitDx=0;exitDy=0;entryX=0;entryY=0.5;entryDx=0;entryDy=0;" parent="1" source="MF8MeAIVvCoW0Vd0KlMn-62" target="MF8MeAIVvCoW0Vd0KlMn-4" edge="1">
          <mxGeometry width="50" height="50" relative="1" as="geometry">
            <mxPoint x="205" y="145" as="sourcePoint" />
            <mxPoint x="264" y="188" as="targetPoint" />
          </mxGeometry>
        </mxCell>
        <mxCell id="MF8MeAIVvCoW0Vd0KlMn-66" value="" style="endArrow=classic;html=1;rounded=0;fillColor=#dae8fc;strokeColor=#0c66e4;strokeWidth=2;exitX=1;exitY=0.75;exitDx=0;exitDy=0;entryX=0;entryY=0.5;entryDx=0;entryDy=0;" parent="1" source="MF8MeAIVvCoW0Vd0KlMn-62" edge="1">
          <mxGeometry width="50" height="50" relative="1" as="geometry">
            <mxPoint x="193" y="313" as="sourcePoint" />
            <mxPoint x="248" y="471" as="targetPoint" />
          </mxGeometry>
        </mxCell>
        <mxCell id="MF8MeAIVvCoW0Vd0KlMn-67" value="P0" style="rounded=0;whiteSpace=wrap;html=1;" parent="1" vertex="1">
          <mxGeometry x="781" y="140" width="40" height="37" as="geometry" />
        </mxCell>
        <mxCell id="MF8MeAIVvCoW0Vd0KlMn-68" value="P1" style="rounded=0;whiteSpace=wrap;html=1;" parent="1" vertex="1">
          <mxGeometry x="781" y="177" width="40" height="37" as="geometry" />
        </mxCell>
        <mxCell id="MF8MeAIVvCoW0Vd0KlMn-69" value="P2" style="rounded=0;whiteSpace=wrap;html=1;" parent="1" vertex="1">
          <mxGeometry x="781" y="214" width="40" height="37" as="geometry" />
        </mxCell>
        <mxCell id="MF8MeAIVvCoW0Vd0KlMn-70" value="Pmn-2" style="rounded=0;whiteSpace=wrap;html=1;" parent="1" vertex="1">
          <mxGeometry x="781" y="345" width="40" height="37" as="geometry" />
        </mxCell>
        <mxCell id="MF8MeAIVvCoW0Vd0KlMn-71" value="Pmn-1" style="rounded=0;whiteSpace=wrap;html=1;" parent="1" vertex="1">
          <mxGeometry x="781" y="382" width="40" height="37" as="geometry" />
        </mxCell>
        <mxCell id="MF8MeAIVvCoW0Vd0KlMn-72" value="PIdx" style="rounded=0;whiteSpace=wrap;html=1;" parent="1" vertex="1">
          <mxGeometry x="781" y="419" width="40" height="37" as="geometry" />
        </mxCell>
        <mxCell id="MF8MeAIVvCoW0Vd0KlMn-73" value="" style="endArrow=none;dashed=1;html=1;dashPattern=1 3;strokeWidth=2;rounded=0;" parent="1" edge="1">
          <mxGeometry width="50" height="50" relative="1" as="geometry">
            <mxPoint x="802.5" y="260" as="sourcePoint" />
            <mxPoint x="801.804347826087" y="276" as="targetPoint" />
          </mxGeometry>
        </mxCell>
        <mxCell id="MF8MeAIVvCoW0Vd0KlMn-74" value="Pm-1" style="rounded=0;whiteSpace=wrap;html=1;" parent="1" vertex="1">
          <mxGeometry x="781" y="276" width="40" height="37" as="geometry" />
        </mxCell>
        <mxCell id="MF8MeAIVvCoW0Vd0KlMn-75" value="" style="endArrow=none;dashed=1;html=1;dashPattern=1 3;strokeWidth=2;rounded=0;" parent="1" edge="1">
          <mxGeometry width="50" height="50" relative="1" as="geometry">
            <mxPoint x="802.5" y="323" as="sourcePoint" />
            <mxPoint x="801.804347826087" y="339" as="targetPoint" />
          </mxGeometry>
        </mxCell>
        <mxCell id="MF8MeAIVvCoW0Vd0KlMn-76" value="Pfield" style="rounded=0;whiteSpace=wrap;html=1;fillColor=#f8cecc;strokeColor=#b85450;" parent="1" vertex="1">
          <mxGeometry x="781" y="103" width="40" height="37" as="geometry" />
        </mxCell>
        <mxCell id="MF8MeAIVvCoW0Vd0KlMn-77" value="" style="endArrow=classic;html=1;rounded=0;fillColor=#dae8fc;strokeColor=#080808;entryX=0;entryY=0.5;entryDx=0;entryDy=0;strokeWidth=2;exitX=1;exitY=0.5;exitDx=0;exitDy=0;" parent="1" source="MF8MeAIVvCoW0Vd0KlMn-10" edge="1">
          <mxGeometry width="50" height="50" relative="1" as="geometry">
            <mxPoint x="741" y="580.5" as="sourcePoint" />
            <mxPoint x="781" y="396" as="targetPoint" />
          </mxGeometry>
        </mxCell>
      </root>
    </mxGraphModel>
  </diagram>
</mxfile>
